<mxfile host="app.diagrams.net" agent="Mozilla/5.0 (Windows NT 10.0; Win64; x64) AppleWebKit/537.36 (KHTML, like Gecko) Chrome/136.0.0.0 Safari/537.36 Edg/136.0.0.0" version="27.0.6">
  <diagram name="Pagina-1" id="Nu88dFfC4uzOYLKEpIPp">
    <mxGraphModel dx="1114" dy="150" grid="1" gridSize="10" guides="1" tooltips="1" connect="1" arrows="1" fold="1" page="1" pageScale="1" pageWidth="827" pageHeight="1169" math="0" shadow="0">
      <root>
        <mxCell id="0" />
        <mxCell id="1" parent="0" />
        <mxCell id="MyaQz2SFNksA92ETXeCg-1" value="&lt;font&gt;Cliente&lt;/font&gt;" style="whiteSpace=wrap;html=1;align=center;fontFamily=Times New Roman;" parent="1" vertex="1">
          <mxGeometry x="-560" y="369.76" width="110" height="40" as="geometry" />
        </mxCell>
        <mxCell id="MyaQz2SFNksA92ETXeCg-3" style="edgeStyle=orthogonalEdgeStyle;shape=connector;rounded=0;orthogonalLoop=1;jettySize=auto;html=1;exitX=0;exitY=0.5;exitDx=0;exitDy=0;strokeColor=default;align=center;verticalAlign=middle;fontFamily=Times New Roman;fontSize=11;fontColor=default;labelBackgroundColor=default;startFill=0;endArrow=none;" parent="1" edge="1">
          <mxGeometry relative="1" as="geometry">
            <mxPoint x="-760" y="389.92" as="targetPoint" />
            <mxPoint x="-620" y="389.32" as="sourcePoint" />
          </mxGeometry>
        </mxCell>
        <mxCell id="MyaQz2SFNksA92ETXeCg-4" value="Amministratore" style="whiteSpace=wrap;html=1;align=center;fontFamily=Times New Roman;" parent="1" vertex="1">
          <mxGeometry x="-730" y="370.4" width="110" height="40" as="geometry" />
        </mxCell>
        <mxCell id="MyaQz2SFNksA92ETXeCg-16" value="&lt;font&gt;Carta di&lt;br&gt;Credito&lt;/font&gt;" style="ellipse;whiteSpace=wrap;html=1;align=center;fontFamily=Times New Roman;" parent="1" vertex="1">
          <mxGeometry x="-510" y="273" width="100" height="40" as="geometry" />
        </mxCell>
        <mxCell id="MyaQz2SFNksA92ETXeCg-17" value="" style="ellipse;whiteSpace=wrap;html=1;aspect=fixed;fontFamily=Times New Roman;" parent="1" vertex="1">
          <mxGeometry x="-510" y="253" width="10" height="10" as="geometry" />
        </mxCell>
        <mxCell id="MyaQz2SFNksA92ETXeCg-18" value="" style="ellipse;whiteSpace=wrap;html=1;aspect=fixed;fontFamily=Times New Roman;" parent="1" vertex="1">
          <mxGeometry x="-480" y="253" width="10" height="10" as="geometry" />
        </mxCell>
        <mxCell id="MyaQz2SFNksA92ETXeCg-19" style="edgeStyle=orthogonalEdgeStyle;rounded=0;orthogonalLoop=1;jettySize=auto;html=1;exitX=0.5;exitY=1;exitDx=0;exitDy=0;entryX=0.05;entryY=0.25;entryDx=0;entryDy=0;entryPerimeter=0;endArrow=none;startFill=0;fontFamily=Times New Roman;" parent="1" source="MyaQz2SFNksA92ETXeCg-17" target="MyaQz2SFNksA92ETXeCg-16" edge="1">
          <mxGeometry relative="1" as="geometry" />
        </mxCell>
        <mxCell id="MyaQz2SFNksA92ETXeCg-20" style="edgeStyle=orthogonalEdgeStyle;rounded=0;orthogonalLoop=1;jettySize=auto;html=1;exitX=0.5;exitY=1;exitDx=0;exitDy=0;entryX=0.35;entryY=0.041;entryDx=0;entryDy=0;entryPerimeter=0;endArrow=none;startFill=0;fontFamily=Times New Roman;" parent="1" source="MyaQz2SFNksA92ETXeCg-18" target="MyaQz2SFNksA92ETXeCg-16" edge="1">
          <mxGeometry relative="1" as="geometry" />
        </mxCell>
        <mxCell id="MyaQz2SFNksA92ETXeCg-21" value="" style="ellipse;whiteSpace=wrap;html=1;aspect=fixed;fontFamily=Times New Roman;" parent="1" vertex="1">
          <mxGeometry x="-460" y="253" width="10" height="10" as="geometry" />
        </mxCell>
        <mxCell id="MyaQz2SFNksA92ETXeCg-22" value="" style="ellipse;whiteSpace=wrap;html=1;aspect=fixed;fontFamily=Times New Roman;" parent="1" vertex="1">
          <mxGeometry x="-420" y="253" width="10" height="10" as="geometry" />
        </mxCell>
        <mxCell id="MyaQz2SFNksA92ETXeCg-23" style="edgeStyle=orthogonalEdgeStyle;rounded=0;orthogonalLoop=1;jettySize=auto;html=1;exitX=0.5;exitY=1;exitDx=0;exitDy=0;entryX=0.55;entryY=0.003;entryDx=0;entryDy=0;entryPerimeter=0;endArrow=none;startFill=0;fontFamily=Times New Roman;" parent="1" source="MyaQz2SFNksA92ETXeCg-21" target="MyaQz2SFNksA92ETXeCg-16" edge="1">
          <mxGeometry relative="1" as="geometry" />
        </mxCell>
        <mxCell id="MyaQz2SFNksA92ETXeCg-24" value="&lt;font style=&quot;font-size: 10px;&quot;&gt;Intestatario&lt;/font&gt;" style="text;html=1;align=center;verticalAlign=middle;whiteSpace=wrap;rounded=0;fontFamily=Times New Roman;fontSize=12;fontColor=default;labelBackgroundColor=default;" parent="1" vertex="1">
          <mxGeometry x="-540" y="230" width="60" height="30" as="geometry" />
        </mxCell>
        <mxCell id="MyaQz2SFNksA92ETXeCg-25" value="&lt;font&gt;CVV&lt;/font&gt;" style="text;html=1;align=center;verticalAlign=middle;resizable=0;points=[];autosize=1;strokeColor=none;fillColor=none;fontFamily=Times New Roman;fontSize=10;fontColor=default;labelBackgroundColor=default;" parent="1" vertex="1">
          <mxGeometry x="-495" y="230" width="40" height="30" as="geometry" />
        </mxCell>
        <mxCell id="MyaQz2SFNksA92ETXeCg-26" value="&lt;font&gt;Numero&lt;/font&gt;" style="text;html=1;align=center;verticalAlign=middle;resizable=0;points=[];autosize=1;strokeColor=none;fillColor=none;fontFamily=Times New Roman;fontSize=10;fontColor=default;labelBackgroundColor=default;" parent="1" vertex="1">
          <mxGeometry x="-475" y="230" width="60" height="30" as="geometry" />
        </mxCell>
        <mxCell id="MyaQz2SFNksA92ETXeCg-27" value="&lt;font&gt;Data&lt;br&gt;Scadenza&lt;/font&gt;" style="text;html=1;align=center;verticalAlign=middle;resizable=0;points=[];autosize=1;strokeColor=none;fillColor=none;fontFamily=Times New Roman;fontSize=10;fontColor=default;labelBackgroundColor=default;" parent="1" vertex="1">
          <mxGeometry x="-430" y="220" width="60" height="40" as="geometry" />
        </mxCell>
        <mxCell id="MyaQz2SFNksA92ETXeCg-28" value="" style="endArrow=none;html=1;rounded=0;strokeColor=default;align=center;verticalAlign=middle;fontFamily=Times New Roman;fontSize=11;fontColor=default;labelBackgroundColor=default;edgeStyle=orthogonalEdgeStyle;" parent="1" edge="1">
          <mxGeometry width="50" height="50" relative="1" as="geometry">
            <mxPoint x="-470" y="360" as="sourcePoint" />
            <mxPoint x="-470" y="320" as="targetPoint" />
          </mxGeometry>
        </mxCell>
        <mxCell id="MyaQz2SFNksA92ETXeCg-29" value="&lt;font&gt;(1,n)&lt;/font&gt;" style="text;html=1;align=center;verticalAlign=middle;resizable=0;points=[];autosize=1;strokeColor=none;fillColor=none;fontFamily=Times New Roman;fontSize=12;fontColor=default;labelBackgroundColor=default;" parent="1" vertex="1">
          <mxGeometry x="-480" y="345" width="50" height="30" as="geometry" />
        </mxCell>
        <mxCell id="MyaQz2SFNksA92ETXeCg-30" value="" style="ellipse;whiteSpace=wrap;html=1;aspect=fixed;fontFamily=Times New Roman;" parent="1" vertex="1">
          <mxGeometry x="-470" y="440" width="10" height="10" as="geometry" />
        </mxCell>
        <mxCell id="MyaQz2SFNksA92ETXeCg-31" value="" style="ellipse;whiteSpace=wrap;html=1;aspect=fixed;fontFamily=Times New Roman;" parent="1" vertex="1">
          <mxGeometry x="-140" y="335" width="10" height="10" as="geometry" />
        </mxCell>
        <mxCell id="MyaQz2SFNksA92ETXeCg-32" value="" style="ellipse;whiteSpace=wrap;html=1;aspect=fixed;fontFamily=Times New Roman;" parent="1" vertex="1">
          <mxGeometry x="-530" y="440" width="10" height="10" as="geometry" />
        </mxCell>
        <mxCell id="MyaQz2SFNksA92ETXeCg-33" value="" style="ellipse;whiteSpace=wrap;html=1;aspect=fixed;fillColor=#FFFFFF;fontFamily=Times New Roman;" parent="1" vertex="1">
          <mxGeometry x="-550" y="440" width="10" height="10" as="geometry" />
        </mxCell>
        <mxCell id="MyaQz2SFNksA92ETXeCg-34" style="edgeStyle=orthogonalEdgeStyle;shape=connector;rounded=0;orthogonalLoop=1;jettySize=auto;html=1;exitX=0.5;exitY=0;exitDx=0;exitDy=0;entryX=0.135;entryY=0.99;entryDx=0;entryDy=0;entryPerimeter=0;strokeColor=default;align=center;verticalAlign=middle;fontFamily=Times New Roman;fontSize=7;fontColor=default;labelBackgroundColor=default;autosize=1;resizable=0;startFill=0;endArrow=none;" parent="1" source="MyaQz2SFNksA92ETXeCg-33" target="MyaQz2SFNksA92ETXeCg-1" edge="1">
          <mxGeometry relative="1" as="geometry" />
        </mxCell>
        <mxCell id="MyaQz2SFNksA92ETXeCg-35" value="&lt;font&gt;CF&lt;/font&gt;" style="text;html=1;align=center;verticalAlign=middle;resizable=0;points=[];autosize=1;strokeColor=none;fillColor=none;fontFamily=Times New Roman;fontSize=12;fontColor=default;labelBackgroundColor=default;" parent="1" vertex="1">
          <mxGeometry x="-570" y="450" width="40" height="30" as="geometry" />
        </mxCell>
        <mxCell id="MyaQz2SFNksA92ETXeCg-36" style="edgeStyle=orthogonalEdgeStyle;shape=connector;rounded=0;orthogonalLoop=1;jettySize=auto;html=1;exitX=0.5;exitY=0;exitDx=0;exitDy=0;entryX=0.314;entryY=0.988;entryDx=0;entryDy=0;entryPerimeter=0;strokeColor=default;align=center;verticalAlign=middle;fontFamily=Times New Roman;fontSize=7;fontColor=default;labelBackgroundColor=default;autosize=1;resizable=0;startFill=0;endArrow=none;" parent="1" source="MyaQz2SFNksA92ETXeCg-32" target="MyaQz2SFNksA92ETXeCg-1" edge="1">
          <mxGeometry relative="1" as="geometry" />
        </mxCell>
        <mxCell id="MyaQz2SFNksA92ETXeCg-37" value="&lt;font&gt;Data&lt;br&gt;Nascita&lt;/font&gt;" style="text;html=1;align=center;verticalAlign=middle;resizable=0;points=[];autosize=1;strokeColor=none;fillColor=none;fontFamily=Times New Roman;fontSize=12;fontColor=default;labelBackgroundColor=default;" parent="1" vertex="1">
          <mxGeometry x="-540" y="445" width="60" height="40" as="geometry" />
        </mxCell>
        <mxCell id="MyaQz2SFNksA92ETXeCg-38" value="&lt;font&gt;Citta&lt;br&gt;Nascita&lt;/font&gt;" style="text;html=1;align=center;verticalAlign=middle;resizable=0;points=[];autosize=1;strokeColor=none;fillColor=none;fontFamily=Times New Roman;fontSize=12;fontColor=default;labelBackgroundColor=default;" parent="1" vertex="1">
          <mxGeometry x="-485" y="445" width="60" height="40" as="geometry" />
        </mxCell>
        <mxCell id="MyaQz2SFNksA92ETXeCg-39" value="Nome" style="text;html=1;align=center;verticalAlign=middle;resizable=0;points=[];autosize=1;strokeColor=none;fillColor=none;fontFamily=Times New Roman;fontSize=12;fontColor=default;labelBackgroundColor=default;" parent="1" vertex="1">
          <mxGeometry x="-620" y="360.4" width="50" height="30" as="geometry" />
        </mxCell>
        <mxCell id="MyaQz2SFNksA92ETXeCg-40" style="edgeStyle=orthogonalEdgeStyle;shape=connector;rounded=0;orthogonalLoop=1;jettySize=auto;html=1;exitX=1;exitY=0.5;exitDx=0;exitDy=0;entryX=0;entryY=0.75;entryDx=0;entryDy=0;strokeColor=default;align=center;verticalAlign=middle;fontFamily=Times New Roman;fontSize=11;fontColor=default;labelBackgroundColor=default;startFill=0;endArrow=none;" parent="1" source="MyaQz2SFNksA92ETXeCg-41" target="MyaQz2SFNksA92ETXeCg-1" edge="1">
          <mxGeometry relative="1" as="geometry" />
        </mxCell>
        <mxCell id="MyaQz2SFNksA92ETXeCg-41" value="" style="ellipse;whiteSpace=wrap;html=1;aspect=fixed;fontFamily=Times New Roman;" parent="1" vertex="1">
          <mxGeometry x="-585" y="399.76" width="10" height="10" as="geometry" />
        </mxCell>
        <mxCell id="MyaQz2SFNksA92ETXeCg-42" value="Cognome" style="text;html=1;align=center;verticalAlign=middle;resizable=0;points=[];autosize=1;strokeColor=none;fillColor=none;fontFamily=Times New Roman;fontSize=12;fontColor=default;labelBackgroundColor=default;" parent="1" vertex="1">
          <mxGeometry x="-630" y="404.76" width="70" height="30" as="geometry" />
        </mxCell>
        <mxCell id="MyaQz2SFNksA92ETXeCg-43" style="edgeStyle=orthogonalEdgeStyle;shape=connector;rounded=0;orthogonalLoop=1;jettySize=auto;html=1;exitX=0.5;exitY=0;exitDx=0;exitDy=0;entryX=0.864;entryY=1.002;entryDx=0;entryDy=0;entryPerimeter=0;strokeColor=default;align=center;verticalAlign=middle;fontFamily=Times New Roman;fontSize=11;fontColor=default;labelBackgroundColor=default;startFill=0;endArrow=none;" parent="1" source="MyaQz2SFNksA92ETXeCg-30" target="MyaQz2SFNksA92ETXeCg-1" edge="1">
          <mxGeometry relative="1" as="geometry" />
        </mxCell>
        <mxCell id="MyaQz2SFNksA92ETXeCg-44" value="" style="ellipse;whiteSpace=wrap;html=1;aspect=fixed;fontFamily=Times New Roman;" parent="1" vertex="1">
          <mxGeometry x="-585" y="379.76" width="10" height="10" as="geometry" />
        </mxCell>
        <mxCell id="MyaQz2SFNksA92ETXeCg-45" style="edgeStyle=orthogonalEdgeStyle;shape=connector;rounded=0;orthogonalLoop=1;jettySize=auto;html=1;exitX=1;exitY=0.5;exitDx=0;exitDy=0;entryX=0.002;entryY=0.224;entryDx=0;entryDy=0;entryPerimeter=0;strokeColor=default;align=center;verticalAlign=middle;fontFamily=Times New Roman;fontSize=11;fontColor=default;labelBackgroundColor=default;startFill=0;endArrow=none;" parent="1" source="MyaQz2SFNksA92ETXeCg-44" target="MyaQz2SFNksA92ETXeCg-1" edge="1">
          <mxGeometry relative="1" as="geometry" />
        </mxCell>
        <mxCell id="MyaQz2SFNksA92ETXeCg-46" value="&lt;font style=&quot;&quot;&gt;Formulare&lt;/font&gt;" style="shape=rhombus;perimeter=rhombusPerimeter;whiteSpace=wrap;html=1;align=center;fontFamily=Times New Roman;" parent="1" vertex="1">
          <mxGeometry x="-390" y="365" width="120" height="60" as="geometry" />
        </mxCell>
        <mxCell id="MyaQz2SFNksA92ETXeCg-47" style="edgeStyle=orthogonalEdgeStyle;shape=connector;rounded=0;orthogonalLoop=1;jettySize=auto;html=1;exitX=0;exitY=0.5;exitDx=0;exitDy=0;entryX=0.998;entryY=0.615;entryDx=0;entryDy=0;entryPerimeter=0;strokeColor=default;align=center;verticalAlign=middle;fontFamily=Times New Roman;fontSize=11;fontColor=default;labelBackgroundColor=default;startFill=0;endArrow=none;" parent="1" source="MyaQz2SFNksA92ETXeCg-46" target="MyaQz2SFNksA92ETXeCg-1" edge="1">
          <mxGeometry relative="1" as="geometry" />
        </mxCell>
        <mxCell id="MyaQz2SFNksA92ETXeCg-48" style="edgeStyle=orthogonalEdgeStyle;shape=connector;rounded=0;orthogonalLoop=1;jettySize=auto;html=1;exitX=0.5;exitY=1;exitDx=0;exitDy=0;entryX=0.5;entryY=0;entryDx=0;entryDy=0;strokeColor=default;align=center;verticalAlign=middle;fontFamily=Times New Roman;fontSize=11;fontColor=default;labelBackgroundColor=default;startFill=0;endArrow=none;" parent="1" source="MyaQz2SFNksA92ETXeCg-49" target="MyaQz2SFNksA92ETXeCg-58" edge="1">
          <mxGeometry relative="1" as="geometry" />
        </mxCell>
        <mxCell id="MyaQz2SFNksA92ETXeCg-49" value="&lt;font&gt;Offerte&lt;/font&gt;" style="whiteSpace=wrap;html=1;align=center;fontFamily=Times New Roman;" parent="1" vertex="1">
          <mxGeometry x="-200" y="369.76" width="120" height="40" as="geometry" />
        </mxCell>
        <mxCell id="MyaQz2SFNksA92ETXeCg-50" style="edgeStyle=orthogonalEdgeStyle;shape=connector;rounded=0;orthogonalLoop=1;jettySize=auto;html=1;exitX=0;exitY=0.5;exitDx=0;exitDy=0;entryX=1;entryY=0.5;entryDx=0;entryDy=0;strokeColor=default;align=center;verticalAlign=middle;fontFamily=Times New Roman;fontSize=11;fontColor=default;labelBackgroundColor=default;startFill=0;endArrow=none;" parent="1" source="MyaQz2SFNksA92ETXeCg-51" target="MyaQz2SFNksA92ETXeCg-49" edge="1">
          <mxGeometry relative="1" as="geometry" />
        </mxCell>
        <mxCell id="MyaQz2SFNksA92ETXeCg-51" value="" style="ellipse;whiteSpace=wrap;html=1;aspect=fixed;fontFamily=Times New Roman;" parent="1" vertex="1">
          <mxGeometry x="-60" y="384.76" width="10" height="10" as="geometry" />
        </mxCell>
        <mxCell id="MyaQz2SFNksA92ETXeCg-52" value="&lt;font&gt;Valore&lt;br&gt;Effettivo&lt;/font&gt;" style="text;html=1;align=center;verticalAlign=middle;resizable=0;points=[];autosize=1;strokeColor=none;fillColor=none;fontFamily=Times New Roman;fontSize=12;fontColor=default;labelBackgroundColor=default;" parent="1" vertex="1">
          <mxGeometry x="-60" y="369.76" width="70" height="40" as="geometry" />
        </mxCell>
        <mxCell id="MyaQz2SFNksA92ETXeCg-53" value="" style="ellipse;whiteSpace=wrap;html=1;aspect=fixed;fontFamily=Times New Roman;" parent="1" vertex="1">
          <mxGeometry x="-170" y="650" width="10" height="10" as="geometry" />
        </mxCell>
        <mxCell id="MyaQz2SFNksA92ETXeCg-54" style="edgeStyle=orthogonalEdgeStyle;shape=connector;rounded=0;orthogonalLoop=1;jettySize=auto;html=1;exitX=0.5;exitY=1;exitDx=0;exitDy=0;strokeColor=default;align=center;verticalAlign=middle;fontFamily=Times New Roman;fontSize=11;fontColor=default;labelBackgroundColor=default;startFill=0;endArrow=none;" parent="1" source="MyaQz2SFNksA92ETXeCg-55" edge="1">
          <mxGeometry relative="1" as="geometry">
            <mxPoint x="-760" y="700" as="targetPoint" />
          </mxGeometry>
        </mxCell>
        <mxCell id="MyaQz2SFNksA92ETXeCg-55" value="Creazione" style="shape=rhombus;perimeter=rhombusPerimeter;whiteSpace=wrap;html=1;align=center;fontFamily=Times New Roman;" parent="1" vertex="1">
          <mxGeometry x="-820" y="490" width="120" height="60" as="geometry" />
        </mxCell>
        <mxCell id="MyaQz2SFNksA92ETXeCg-56" value="" style="endArrow=none;html=1;rounded=0;strokeColor=default;align=center;verticalAlign=middle;fontFamily=Times New Roman;fontSize=11;fontColor=default;labelBackgroundColor=default;edgeStyle=orthogonalEdgeStyle;exitX=0.5;exitY=0;exitDx=0;exitDy=0;" parent="1" source="MyaQz2SFNksA92ETXeCg-55" edge="1">
          <mxGeometry width="50" height="50" relative="1" as="geometry">
            <mxPoint x="-760" y="410" as="sourcePoint" />
            <mxPoint x="-760" y="390" as="targetPoint" />
          </mxGeometry>
        </mxCell>
        <mxCell id="MyaQz2SFNksA92ETXeCg-57" style="edgeStyle=orthogonalEdgeStyle;shape=connector;rounded=0;orthogonalLoop=1;jettySize=auto;html=1;exitX=0.5;exitY=1;exitDx=0;exitDy=0;entryX=0.5;entryY=0;entryDx=0;entryDy=0;strokeColor=default;align=center;verticalAlign=middle;fontFamily=Times New Roman;fontSize=11;fontColor=default;labelBackgroundColor=default;startFill=0;endArrow=none;" parent="1" source="MyaQz2SFNksA92ETXeCg-58" target="MyaQz2SFNksA92ETXeCg-59" edge="1">
          <mxGeometry relative="1" as="geometry" />
        </mxCell>
        <mxCell id="MyaQz2SFNksA92ETXeCg-58" value="&lt;font&gt;riferimento&lt;/font&gt;" style="shape=rhombus;perimeter=rhombusPerimeter;whiteSpace=wrap;html=1;align=center;fontFamily=Times New Roman;" parent="1" vertex="1">
          <mxGeometry x="-200" y="490" width="120" height="60" as="geometry" />
        </mxCell>
        <mxCell id="l5-qMtQxf-NeuBGAWEjH-20" style="edgeStyle=orthogonalEdgeStyle;rounded=0;orthogonalLoop=1;jettySize=auto;html=1;exitX=0.5;exitY=1;exitDx=0;exitDy=0;endArrow=none;startFill=0;" edge="1" parent="1" source="MyaQz2SFNksA92ETXeCg-59">
          <mxGeometry relative="1" as="geometry">
            <mxPoint x="-140.02272727272737" y="730" as="targetPoint" />
          </mxGeometry>
        </mxCell>
        <mxCell id="MyaQz2SFNksA92ETXeCg-59" value="&lt;font&gt;Asta&lt;/font&gt;" style="whiteSpace=wrap;html=1;align=center;fontFamily=Times New Roman;" parent="1" vertex="1">
          <mxGeometry x="-200" y="680" width="120" height="40" as="geometry" />
        </mxCell>
        <mxCell id="MyaQz2SFNksA92ETXeCg-60" value="&lt;font&gt;Importo&lt;/font&gt;&lt;div&gt;&lt;font&gt;Offerta max&lt;/font&gt;&lt;/div&gt;" style="text;html=1;align=center;verticalAlign=middle;resizable=0;points=[];autosize=1;strokeColor=none;fillColor=none;fontFamily=Times New Roman;fontSize=12;fontColor=default;labelBackgroundColor=default;" parent="1" vertex="1">
          <mxGeometry x="-235" y="748" width="80" height="40" as="geometry" />
        </mxCell>
        <mxCell id="MyaQz2SFNksA92ETXeCg-61" style="edgeStyle=orthogonalEdgeStyle;rounded=0;orthogonalLoop=1;jettySize=auto;html=1;exitX=0.5;exitY=0;exitDx=0;exitDy=0;entryX=0.25;entryY=1;entryDx=0;entryDy=0;endArrow=none;startFill=0;fontFamily=Times New Roman;" parent="1" source="MyaQz2SFNksA92ETXeCg-62" edge="1">
          <mxGeometry relative="1" as="geometry">
            <mxPoint x="-140" y="725" as="targetPoint" />
          </mxGeometry>
        </mxCell>
        <mxCell id="MyaQz2SFNksA92ETXeCg-62" value="" style="ellipse;whiteSpace=wrap;html=1;aspect=fixed;fontFamily=Times New Roman;" parent="1" vertex="1">
          <mxGeometry x="-145" y="740" width="10" height="10" as="geometry" />
        </mxCell>
        <mxCell id="MyaQz2SFNksA92ETXeCg-63" value="" style="ellipse;whiteSpace=wrap;html=1;aspect=fixed;fontFamily=Times New Roman;" parent="1" vertex="1">
          <mxGeometry x="-100" y="740" width="10" height="10" as="geometry" />
        </mxCell>
        <mxCell id="MyaQz2SFNksA92ETXeCg-65" value="" style="ellipse;whiteSpace=wrap;html=1;aspect=fixed;fontFamily=Times New Roman;" parent="1" vertex="1">
          <mxGeometry x="-190" y="740" width="10" height="10" as="geometry" />
        </mxCell>
        <mxCell id="MyaQz2SFNksA92ETXeCg-72" value="&lt;font&gt;Numero&lt;br&gt;Offerte&lt;/font&gt;" style="text;html=1;align=center;verticalAlign=middle;resizable=0;points=[];autosize=1;strokeColor=none;fillColor=none;fontFamily=Times New Roman;fontSize=12;fontColor=default;labelBackgroundColor=default;" parent="1" vertex="1">
          <mxGeometry x="-170" y="745" width="60" height="40" as="geometry" />
        </mxCell>
        <mxCell id="MyaQz2SFNksA92ETXeCg-73" value="&lt;font&gt;Tempo&lt;/font&gt;&lt;div&gt;&lt;font&gt;Mancante&lt;/font&gt;&lt;/div&gt;" style="text;html=1;align=center;verticalAlign=middle;resizable=0;points=[];autosize=1;strokeColor=none;fillColor=none;fontFamily=Times New Roman;fontSize=12;fontColor=default;labelBackgroundColor=default;" parent="1" vertex="1">
          <mxGeometry x="-120" y="745" width="70" height="40" as="geometry" />
        </mxCell>
        <mxCell id="MyaQz2SFNksA92ETXeCg-74" style="edgeStyle=orthogonalEdgeStyle;rounded=0;orthogonalLoop=1;jettySize=auto;html=1;exitX=0;exitY=0.5;exitDx=0;exitDy=0;endArrow=none;startFill=0;fontFamily=Times New Roman;" parent="1" source="MyaQz2SFNksA92ETXeCg-81" target="MyaQz2SFNksA92ETXeCg-83" edge="1">
          <mxGeometry relative="1" as="geometry" />
        </mxCell>
        <mxCell id="MyaQz2SFNksA92ETXeCg-75" style="edgeStyle=orthogonalEdgeStyle;shape=connector;rounded=0;orthogonalLoop=1;jettySize=auto;html=1;exitX=0.5;exitY=1;exitDx=0;exitDy=0;entryX=0.089;entryY=0.032;entryDx=0;entryDy=0;entryPerimeter=0;strokeColor=default;align=center;verticalAlign=middle;fontFamily=Times New Roman;fontSize=7;fontColor=default;labelBackgroundColor=default;autosize=1;resizable=0;startFill=0;endArrow=none;" parent="1" source="MyaQz2SFNksA92ETXeCg-84" target="MyaQz2SFNksA92ETXeCg-83" edge="1">
          <mxGeometry relative="1" as="geometry" />
        </mxCell>
        <mxCell id="MyaQz2SFNksA92ETXeCg-76" style="edgeStyle=orthogonalEdgeStyle;shape=connector;rounded=0;orthogonalLoop=1;jettySize=auto;html=1;exitX=0.5;exitY=1;exitDx=0;exitDy=0;entryX=0.273;entryY=0.015;entryDx=0;entryDy=0;entryPerimeter=0;strokeColor=default;align=center;verticalAlign=middle;fontFamily=Times New Roman;fontSize=7;fontColor=default;labelBackgroundColor=default;autosize=1;resizable=0;startFill=0;endArrow=none;" parent="1" source="MyaQz2SFNksA92ETXeCg-85" target="MyaQz2SFNksA92ETXeCg-83" edge="1">
          <mxGeometry relative="1" as="geometry" />
        </mxCell>
        <mxCell id="MyaQz2SFNksA92ETXeCg-77" style="edgeStyle=orthogonalEdgeStyle;shape=connector;rounded=0;orthogonalLoop=1;jettySize=auto;html=1;exitX=0.5;exitY=1;exitDx=0;exitDy=0;entryX=0.91;entryY=0.003;entryDx=0;entryDy=0;entryPerimeter=0;strokeColor=default;align=center;verticalAlign=middle;fontFamily=Times New Roman;fontSize=7;fontColor=default;labelBackgroundColor=default;autosize=1;resizable=0;startFill=0;endArrow=none;" parent="1" source="MyaQz2SFNksA92ETXeCg-87" target="MyaQz2SFNksA92ETXeCg-83" edge="1">
          <mxGeometry relative="1" as="geometry" />
        </mxCell>
        <mxCell id="MyaQz2SFNksA92ETXeCg-78" style="edgeStyle=orthogonalEdgeStyle;shape=connector;rounded=0;orthogonalLoop=1;jettySize=auto;html=1;exitX=0.5;exitY=0;exitDx=0;exitDy=0;entryX=0.818;entryY=1.009;entryDx=0;entryDy=0;entryPerimeter=0;strokeColor=default;align=center;verticalAlign=middle;fontFamily=Times New Roman;fontSize=7;fontColor=default;labelBackgroundColor=default;autosize=1;resizable=0;startFill=0;endArrow=none;" parent="1" source="MyaQz2SFNksA92ETXeCg-86" target="MyaQz2SFNksA92ETXeCg-83" edge="1">
          <mxGeometry relative="1" as="geometry" />
        </mxCell>
        <mxCell id="MyaQz2SFNksA92ETXeCg-79" style="edgeStyle=orthogonalEdgeStyle;rounded=0;orthogonalLoop=1;jettySize=auto;html=1;exitX=0.5;exitY=0;exitDx=0;exitDy=0;entryX=0.088;entryY=0.98;entryDx=0;entryDy=0;entryPerimeter=0;endArrow=none;startFill=0;fontFamily=Times New Roman;" parent="1" source="MyaQz2SFNksA92ETXeCg-88" target="MyaQz2SFNksA92ETXeCg-83" edge="1">
          <mxGeometry relative="1" as="geometry" />
        </mxCell>
        <mxCell id="MyaQz2SFNksA92ETXeCg-80" style="edgeStyle=orthogonalEdgeStyle;shape=connector;rounded=0;orthogonalLoop=1;jettySize=auto;html=1;exitX=1;exitY=0.5;exitDx=0;exitDy=0;entryX=0;entryY=0.5;entryDx=0;entryDy=0;strokeColor=default;align=center;verticalAlign=middle;fontFamily=Times New Roman;fontSize=11;fontColor=default;labelBackgroundColor=default;startFill=0;endArrow=none;" parent="1" source="MyaQz2SFNksA92ETXeCg-81" target="MyaQz2SFNksA92ETXeCg-59" edge="1">
          <mxGeometry relative="1" as="geometry" />
        </mxCell>
        <mxCell id="MyaQz2SFNksA92ETXeCg-81" value="Relativa" style="shape=rhombus;perimeter=rhombusPerimeter;whiteSpace=wrap;html=1;align=center;fontColor=#000000;fontFamily=Times New Roman;" parent="1" vertex="1">
          <mxGeometry x="-410" y="670" width="120" height="60" as="geometry" />
        </mxCell>
        <mxCell id="MyaQz2SFNksA92ETXeCg-82" style="edgeStyle=orthogonalEdgeStyle;shape=connector;rounded=0;orthogonalLoop=1;jettySize=auto;html=1;exitX=0;exitY=0.5;exitDx=0;exitDy=0;strokeColor=default;align=center;verticalAlign=middle;fontFamily=Times New Roman;fontSize=11;fontColor=default;labelBackgroundColor=default;startFill=0;endArrow=none;" parent="1" edge="1">
          <mxGeometry relative="1" as="geometry">
            <mxPoint x="-760" y="699.952380952381" as="targetPoint" />
            <mxPoint x="-505" y="700" as="sourcePoint" />
          </mxGeometry>
        </mxCell>
        <mxCell id="MyaQz2SFNksA92ETXeCg-83" value="Oggetto" style="whiteSpace=wrap;html=1;align=center;fontFamily=Times New Roman;" parent="1" vertex="1">
          <mxGeometry x="-575" y="680" width="110" height="40" as="geometry" />
        </mxCell>
        <mxCell id="MyaQz2SFNksA92ETXeCg-84" value="" style="ellipse;whiteSpace=wrap;html=1;aspect=fixed;fillColor=#000000;fontFamily=Times New Roman;" parent="1" vertex="1">
          <mxGeometry x="-570" y="650" width="10" height="10" as="geometry" />
        </mxCell>
        <mxCell id="MyaQz2SFNksA92ETXeCg-85" value="" style="ellipse;whiteSpace=wrap;html=1;aspect=fixed;fontFamily=Times New Roman;" parent="1" vertex="1">
          <mxGeometry x="-550" y="650" width="10" height="10" as="geometry" />
        </mxCell>
        <mxCell id="MyaQz2SFNksA92ETXeCg-86" value="" style="ellipse;whiteSpace=wrap;html=1;aspect=fixed;fontFamily=Times New Roman;" parent="1" vertex="1">
          <mxGeometry x="-490" y="740" width="10" height="10" as="geometry" />
        </mxCell>
        <mxCell id="MyaQz2SFNksA92ETXeCg-87" value="" style="ellipse;whiteSpace=wrap;html=1;aspect=fixed;fontFamily=Times New Roman;" parent="1" vertex="1">
          <mxGeometry x="-480" y="640" width="10" height="10" as="geometry" />
        </mxCell>
        <mxCell id="MyaQz2SFNksA92ETXeCg-88" value="" style="ellipse;whiteSpace=wrap;html=1;aspect=fixed;fontFamily=Times New Roman;" parent="1" vertex="1">
          <mxGeometry x="-570" y="740" width="10" height="10" as="geometry" />
        </mxCell>
        <mxCell id="MyaQz2SFNksA92ETXeCg-89" value="Codice&amp;nbsp;" style="text;html=1;align=center;verticalAlign=middle;resizable=0;points=[];autosize=1;strokeColor=none;fillColor=none;fontFamily=Times New Roman;fontSize=12;fontColor=default;labelBackgroundColor=default;" parent="1" vertex="1">
          <mxGeometry x="-620" y="630" width="60" height="30" as="geometry" />
        </mxCell>
        <mxCell id="MyaQz2SFNksA92ETXeCg-90" value="Descrizione" style="text;html=1;align=center;verticalAlign=middle;resizable=0;points=[];autosize=1;strokeColor=none;fillColor=none;fontFamily=Times New Roman;fontSize=12;fontColor=default;labelBackgroundColor=default;" parent="1" vertex="1">
          <mxGeometry x="-575" y="625" width="80" height="30" as="geometry" />
        </mxCell>
        <mxCell id="MyaQz2SFNksA92ETXeCg-91" value="(1,1)" style="text;html=1;align=center;verticalAlign=middle;resizable=0;points=[];autosize=1;strokeColor=none;fillColor=none;fontFamily=Times New Roman;fontSize=11;fontColor=default;labelBackgroundColor=default;" parent="1" vertex="1">
          <mxGeometry x="-470" y="675" width="40" height="30" as="geometry" />
        </mxCell>
        <mxCell id="MyaQz2SFNksA92ETXeCg-92" value="(0,n)" style="text;html=1;align=center;verticalAlign=middle;resizable=0;points=[];autosize=1;strokeColor=none;fillColor=none;fontFamily=Times New Roman;fontSize=11;fontColor=default;labelBackgroundColor=default;" parent="1" vertex="1">
          <mxGeometry x="-525" y="655" width="40" height="30" as="geometry" />
        </mxCell>
        <mxCell id="MyaQz2SFNksA92ETXeCg-93" value="(1,1)" style="text;html=1;align=center;verticalAlign=middle;resizable=0;points=[];autosize=1;strokeColor=none;fillColor=none;fontFamily=Times New Roman;fontSize=11;fontColor=default;labelBackgroundColor=default;" parent="1" vertex="1">
          <mxGeometry x="-545" y="715" width="40" height="30" as="geometry" />
        </mxCell>
        <mxCell id="MyaQz2SFNksA92ETXeCg-94" value="" style="edgeStyle=orthogonalEdgeStyle;elbow=vertical;endArrow=none;html=1;curved=1;rounded=0;endSize=8;startSize=8;strokeColor=default;align=center;verticalAlign=middle;fontFamily=Times New Roman;fontSize=7;fontColor=default;labelBackgroundColor=default;autosize=1;resizable=0;startFill=0;exitDx=0;exitDy=0;exitPerimeter=0;" parent="1" edge="1">
          <mxGeometry width="50" height="50" relative="1" as="geometry">
            <mxPoint x="-275" y="735" as="sourcePoint" />
            <mxPoint x="-275" y="734" as="targetPoint" />
          </mxGeometry>
        </mxCell>
        <mxCell id="MyaQz2SFNksA92ETXeCg-96" value="" style="edgeStyle=none;orthogonalLoop=1;jettySize=auto;html=1;rounded=0;strokeColor=default;align=center;verticalAlign=middle;fontFamily=Times New Roman;fontSize=11;fontColor=default;labelBackgroundColor=default;startFill=0;endArrow=none;exitX=0.4;exitY=0.991;exitDx=0;exitDy=0;exitPerimeter=0;" parent="1" source="MyaQz2SFNksA92ETXeCg-16" edge="1">
          <mxGeometry width="100" relative="1" as="geometry">
            <mxPoint x="-440" y="299.67" as="sourcePoint" />
            <mxPoint x="-470" y="320" as="targetPoint" />
            <Array as="points" />
          </mxGeometry>
        </mxCell>
        <mxCell id="MyaQz2SFNksA92ETXeCg-97" value="" style="edgeStyle=none;orthogonalLoop=1;jettySize=auto;html=1;rounded=0;strokeColor=default;align=center;verticalAlign=middle;fontFamily=Times New Roman;fontSize=11;fontColor=default;labelBackgroundColor=default;startFill=0;endArrow=none;entryX=0.817;entryY=-0.003;entryDx=0;entryDy=0;entryPerimeter=0;" parent="1" target="MyaQz2SFNksA92ETXeCg-1" edge="1">
          <mxGeometry width="100" relative="1" as="geometry">
            <mxPoint x="-470" y="360" as="sourcePoint" />
            <mxPoint x="-330" y="290" as="targetPoint" />
            <Array as="points" />
          </mxGeometry>
        </mxCell>
        <mxCell id="MyaQz2SFNksA92ETXeCg-98" value="Posseduto" style="shape=rhombus;perimeter=rhombusPerimeter;whiteSpace=wrap;html=1;align=center;fontFamily=Times New Roman;" parent="1" vertex="1">
          <mxGeometry x="-550" y="490" width="120" height="60" as="geometry" />
        </mxCell>
        <mxCell id="MyaQz2SFNksA92ETXeCg-99" style="edgeStyle=orthogonalEdgeStyle;shape=connector;rounded=0;orthogonalLoop=1;jettySize=auto;html=1;exitX=0.5;exitY=0;exitDx=0;exitDy=0;strokeColor=default;align=center;verticalAlign=middle;fontFamily=Times New Roman;fontSize=11;fontColor=default;labelBackgroundColor=default;startFill=0;endArrow=none;" parent="1" source="MyaQz2SFNksA92ETXeCg-98" edge="1">
          <mxGeometry relative="1" as="geometry">
            <mxPoint x="-490" y="410" as="targetPoint" />
          </mxGeometry>
        </mxCell>
        <mxCell id="MyaQz2SFNksA92ETXeCg-100" style="edgeStyle=orthogonalEdgeStyle;shape=connector;rounded=0;orthogonalLoop=1;jettySize=auto;html=1;exitX=0.5;exitY=1;exitDx=0;exitDy=0;entryX=0.776;entryY=0.002;entryDx=0;entryDy=0;entryPerimeter=0;strokeColor=default;align=center;verticalAlign=middle;fontFamily=Times New Roman;fontSize=11;fontColor=default;labelBackgroundColor=default;startFill=0;endArrow=none;" parent="1" source="MyaQz2SFNksA92ETXeCg-98" target="MyaQz2SFNksA92ETXeCg-83" edge="1">
          <mxGeometry relative="1" as="geometry" />
        </mxCell>
        <mxCell id="MyaQz2SFNksA92ETXeCg-101" value="Appartenenza" style="shape=rhombus;perimeter=rhombusPerimeter;whiteSpace=wrap;html=1;align=center;fontFamily=Times New Roman;" parent="1" vertex="1">
          <mxGeometry x="-570" y="838" width="120" height="60" as="geometry" />
        </mxCell>
        <mxCell id="MyaQz2SFNksA92ETXeCg-102" style="edgeStyle=orthogonalEdgeStyle;shape=connector;rounded=0;orthogonalLoop=1;jettySize=auto;html=1;exitX=1;exitY=0.5;exitDx=0;exitDy=0;strokeColor=default;align=center;verticalAlign=middle;fontFamily=Times New Roman;fontSize=11;fontColor=default;labelBackgroundColor=default;startFill=0;endArrow=none;" parent="1" source="MyaQz2SFNksA92ETXeCg-103" edge="1">
          <mxGeometry relative="1" as="geometry">
            <mxPoint x="-570" y="868.0384615384615" as="targetPoint" />
          </mxGeometry>
        </mxCell>
        <mxCell id="MyaQz2SFNksA92ETXeCg-103" value="Categoria&amp;nbsp;" style="whiteSpace=wrap;html=1;align=center;fontFamily=Times New Roman;" parent="1" vertex="1">
          <mxGeometry x="-760" y="848" width="100" height="40" as="geometry" />
        </mxCell>
        <mxCell id="MyaQz2SFNksA92ETXeCg-104" value="" style="ellipse;whiteSpace=wrap;html=1;aspect=fixed;fillColor=#000000;fontFamily=Times New Roman;" parent="1" vertex="1">
          <mxGeometry x="-695" y="928" width="10" height="10" as="geometry" />
        </mxCell>
        <mxCell id="MyaQz2SFNksA92ETXeCg-105" value="&lt;font&gt;Nome Categoria&lt;/font&gt;" style="text;html=1;align=center;verticalAlign=middle;resizable=0;points=[];autosize=1;strokeColor=none;fillColor=none;fontFamily=Times New Roman;fontSize=12;fontColor=default;labelBackgroundColor=default;" parent="1" vertex="1">
          <mxGeometry x="-755" y="933" width="100" height="30" as="geometry" />
        </mxCell>
        <mxCell id="MyaQz2SFNksA92ETXeCg-106" value="(1,n)" style="text;html=1;align=center;verticalAlign=middle;resizable=0;points=[];autosize=1;strokeColor=none;fillColor=none;fontFamily=Times New Roman;fontSize=12;fontColor=default;labelBackgroundColor=default;" parent="1" vertex="1">
          <mxGeometry x="-665" y="868" width="50" height="30" as="geometry" />
        </mxCell>
        <mxCell id="MyaQz2SFNksA92ETXeCg-107" style="edgeStyle=orthogonalEdgeStyle;rounded=0;orthogonalLoop=1;jettySize=auto;html=1;exitX=0.5;exitY=0;exitDx=0;exitDy=0;entryX=0.7;entryY=0.983;entryDx=0;entryDy=0;entryPerimeter=0;endArrow=none;startFill=0;fontFamily=Times New Roman;" parent="1" source="MyaQz2SFNksA92ETXeCg-104" target="MyaQz2SFNksA92ETXeCg-103" edge="1">
          <mxGeometry relative="1" as="geometry" />
        </mxCell>
        <mxCell id="MyaQz2SFNksA92ETXeCg-108" style="edgeStyle=orthogonalEdgeStyle;shape=connector;rounded=0;orthogonalLoop=1;jettySize=auto;html=1;exitX=0.5;exitY=0;exitDx=0;exitDy=0;entryX=0.591;entryY=1.006;entryDx=0;entryDy=0;entryPerimeter=0;strokeColor=default;align=center;verticalAlign=middle;fontFamily=Times New Roman;fontSize=11;fontColor=default;labelBackgroundColor=default;startFill=0;endArrow=none;" parent="1" source="MyaQz2SFNksA92ETXeCg-101" target="MyaQz2SFNksA92ETXeCg-83" edge="1">
          <mxGeometry relative="1" as="geometry" />
        </mxCell>
        <mxCell id="MyaQz2SFNksA92ETXeCg-109" value="&lt;font&gt;(1,n)&lt;/font&gt;" style="text;html=1;align=center;verticalAlign=middle;resizable=0;points=[];autosize=1;strokeColor=none;fillColor=none;fontFamily=Times New Roman;fontSize=12;fontColor=default;labelBackgroundColor=default;" parent="1" vertex="1">
          <mxGeometry x="-460" y="369.76" width="50" height="30" as="geometry" />
        </mxCell>
        <mxCell id="MyaQz2SFNksA92ETXeCg-110" style="edgeStyle=orthogonalEdgeStyle;shape=connector;rounded=0;orthogonalLoop=1;jettySize=auto;html=1;exitX=1;exitY=0.5;exitDx=0;exitDy=0;entryX=-0.004;entryY=0.63;entryDx=0;entryDy=0;entryPerimeter=0;strokeColor=default;align=center;verticalAlign=middle;fontFamily=Times New Roman;fontSize=11;fontColor=default;labelBackgroundColor=default;startFill=0;endArrow=none;" parent="1" source="MyaQz2SFNksA92ETXeCg-46" target="MyaQz2SFNksA92ETXeCg-49" edge="1">
          <mxGeometry relative="1" as="geometry" />
        </mxCell>
        <mxCell id="MyaQz2SFNksA92ETXeCg-111" value="&lt;font&gt;(0,1)&lt;/font&gt;" style="text;html=1;align=center;verticalAlign=middle;resizable=0;points=[];autosize=1;strokeColor=none;fillColor=none;fontFamily=Times New Roman;fontSize=12;fontColor=default;labelBackgroundColor=default;" parent="1" vertex="1">
          <mxGeometry x="-240" y="390.4" width="50" height="30" as="geometry" />
        </mxCell>
        <mxCell id="MyaQz2SFNksA92ETXeCg-113" value="&lt;font&gt;(1,n)&lt;/font&gt;" style="text;html=1;align=center;verticalAlign=middle;resizable=0;points=[];autosize=1;strokeColor=none;fillColor=none;fontFamily=Times New Roman;fontSize=11;fontColor=default;labelBackgroundColor=default;" parent="1" vertex="1">
          <mxGeometry x="-145" y="655" width="40" height="30" as="geometry" />
        </mxCell>
        <mxCell id="MyaQz2SFNksA92ETXeCg-114" value="" style="ellipse;whiteSpace=wrap;html=1;aspect=fixed;fontFamily=Times New Roman;" parent="1" vertex="1">
          <mxGeometry x="-100" y="650" width="10" height="10" as="geometry" />
        </mxCell>
        <mxCell id="MyaQz2SFNksA92ETXeCg-115" style="edgeStyle=orthogonalEdgeStyle;shape=connector;rounded=0;orthogonalLoop=1;jettySize=auto;html=1;exitX=0.5;exitY=1;exitDx=0;exitDy=0;entryX=0.875;entryY=0.015;entryDx=0;entryDy=0;entryPerimeter=0;strokeColor=default;align=center;verticalAlign=middle;fontFamily=Times New Roman;fontSize=11;fontColor=default;labelBackgroundColor=default;startFill=0;endArrow=none;" parent="1" source="MyaQz2SFNksA92ETXeCg-114" target="MyaQz2SFNksA92ETXeCg-59" edge="1">
          <mxGeometry relative="1" as="geometry" />
        </mxCell>
        <mxCell id="MyaQz2SFNksA92ETXeCg-116" style="edgeStyle=orthogonalEdgeStyle;shape=connector;rounded=0;orthogonalLoop=1;jettySize=auto;html=1;exitX=0.5;exitY=1;exitDx=0;exitDy=0;entryX=0.292;entryY=0;entryDx=0;entryDy=0;entryPerimeter=0;strokeColor=default;align=center;verticalAlign=middle;fontFamily=Times New Roman;fontSize=11;fontColor=default;labelBackgroundColor=default;startFill=0;endArrow=none;" parent="1" source="MyaQz2SFNksA92ETXeCg-53" target="MyaQz2SFNksA92ETXeCg-59" edge="1">
          <mxGeometry relative="1" as="geometry" />
        </mxCell>
        <mxCell id="MyaQz2SFNksA92ETXeCg-117" value="&lt;font&gt;Durata&lt;/font&gt;" style="text;html=1;align=center;verticalAlign=middle;resizable=0;points=[];autosize=1;strokeColor=none;fillColor=none;fontFamily=Times New Roman;fontSize=12;fontColor=default;labelBackgroundColor=default;" parent="1" vertex="1">
          <mxGeometry x="-200" y="625" width="60" height="30" as="geometry" />
        </mxCell>
        <mxCell id="MyaQz2SFNksA92ETXeCg-118" value="&lt;font&gt;Data Inizio&lt;/font&gt;" style="text;html=1;align=center;verticalAlign=middle;resizable=0;points=[];autosize=1;strokeColor=none;fillColor=none;fontFamily=Times New Roman;fontSize=12;fontColor=default;labelBackgroundColor=default;" parent="1" vertex="1">
          <mxGeometry x="-135" y="625" width="80" height="30" as="geometry" />
        </mxCell>
        <mxCell id="MyaQz2SFNksA92ETXeCg-119" value="&lt;font&gt;(1,1)&lt;/font&gt;" style="text;html=1;align=center;verticalAlign=middle;resizable=0;points=[];autosize=1;strokeColor=none;fillColor=none;fontFamily=Times New Roman;fontSize=11;fontColor=default;labelBackgroundColor=default;" parent="1" vertex="1">
          <mxGeometry x="-235" y="675" width="40" height="30" as="geometry" />
        </mxCell>
        <mxCell id="MyaQz2SFNksA92ETXeCg-120" style="edgeStyle=orthogonalEdgeStyle;shape=connector;rounded=0;orthogonalLoop=1;jettySize=auto;html=1;exitX=0.5;exitY=1;exitDx=0;exitDy=0;strokeColor=default;align=center;verticalAlign=middle;fontFamily=Times New Roman;fontSize=11;fontColor=default;labelBackgroundColor=default;startFill=0;endArrow=none;" parent="1" source="MyaQz2SFNksA92ETXeCg-121" edge="1">
          <mxGeometry relative="1" as="geometry">
            <mxPoint x="-245.06040268456377" y="720" as="targetPoint" />
          </mxGeometry>
        </mxCell>
        <mxCell id="MyaQz2SFNksA92ETXeCg-121" value="" style="ellipse;whiteSpace=wrap;html=1;aspect=fixed;fillColor=#000000;fontFamily=Times New Roman;" parent="1" vertex="1">
          <mxGeometry x="-250" y="670" width="10" height="10" as="geometry" />
        </mxCell>
        <mxCell id="MyaQz2SFNksA92ETXeCg-122" value="&lt;font&gt;Prezzo base&lt;/font&gt;" style="text;html=1;align=center;verticalAlign=middle;resizable=0;points=[];autosize=1;strokeColor=none;fillColor=none;fontFamily=Times New Roman;fontSize=12;fontColor=default;labelBackgroundColor=default;" parent="1" vertex="1">
          <mxGeometry x="-495" y="610" width="80" height="30" as="geometry" />
        </mxCell>
        <mxCell id="MyaQz2SFNksA92ETXeCg-123" value="(1,1)" style="text;html=1;align=center;verticalAlign=middle;resizable=0;points=[];autosize=1;strokeColor=none;fillColor=none;fontFamily=Times New Roman;fontSize=11;fontColor=default;labelBackgroundColor=default;" parent="1" vertex="1">
          <mxGeometry x="-615" y="675" width="40" height="30" as="geometry" />
        </mxCell>
        <mxCell id="MyaQz2SFNksA92ETXeCg-124" value="Dimensioni" style="text;html=1;align=center;verticalAlign=middle;resizable=0;points=[];autosize=1;strokeColor=none;fillColor=none;fontFamily=Times New Roman;fontSize=12;fontColor=default;labelBackgroundColor=default;" parent="1" vertex="1">
          <mxGeometry x="-605" y="748" width="80" height="30" as="geometry" />
        </mxCell>
        <mxCell id="MyaQz2SFNksA92ETXeCg-125" value="Stato" style="text;html=1;align=center;verticalAlign=middle;resizable=0;points=[];autosize=1;strokeColor=none;fillColor=none;fontFamily=Times New Roman;fontSize=12;fontColor=default;labelBackgroundColor=default;" parent="1" vertex="1">
          <mxGeometry x="-500" y="745" width="50" height="30" as="geometry" />
        </mxCell>
        <mxCell id="MyaQz2SFNksA92ETXeCg-126" value="(1,n)" style="text;html=1;align=center;verticalAlign=middle;resizable=0;points=[];autosize=1;strokeColor=none;fillColor=none;fontFamily=Times New Roman;fontSize=12;fontColor=default;labelBackgroundColor=default;" parent="1" vertex="1">
          <mxGeometry x="-775" y="365.4" width="50" height="30" as="geometry" />
        </mxCell>
        <mxCell id="MyaQz2SFNksA92ETXeCg-127" style="edgeStyle=orthogonalEdgeStyle;shape=connector;rounded=0;orthogonalLoop=1;jettySize=auto;html=1;exitX=0.5;exitY=1;exitDx=0;exitDy=0;strokeColor=default;align=center;verticalAlign=middle;fontFamily=Times New Roman;fontSize=11;fontColor=default;labelBackgroundColor=default;startFill=0;endArrow=none;entryX=0.542;entryY=-0.01;entryDx=0;entryDy=0;entryPerimeter=0;" parent="1" source="MyaQz2SFNksA92ETXeCg-31" target="MyaQz2SFNksA92ETXeCg-49" edge="1">
          <mxGeometry relative="1" as="geometry">
            <mxPoint x="-135" y="365" as="targetPoint" />
          </mxGeometry>
        </mxCell>
        <mxCell id="MyaQz2SFNksA92ETXeCg-128" value="&lt;font&gt;Offerta massima&lt;br&gt;&lt;/font&gt;" style="text;html=1;align=center;verticalAlign=middle;resizable=0;points=[];autosize=1;strokeColor=none;fillColor=none;fontFamily=Times New Roman;fontSize=12;fontColor=default;labelBackgroundColor=default;" parent="1" vertex="1">
          <mxGeometry x="-180" y="305" width="100" height="30" as="geometry" />
        </mxCell>
        <mxCell id="MyaQz2SFNksA92ETXeCg-129" value="&lt;font&gt;(0,1)&lt;/font&gt;" style="text;html=1;align=center;verticalAlign=middle;resizable=0;points=[];autosize=1;strokeColor=none;fillColor=none;fontSize=12;fontFamily=Times New Roman;" parent="1" vertex="1">
          <mxGeometry x="-140" y="345.4" width="50" height="30" as="geometry" />
        </mxCell>
        <mxCell id="MyaQz2SFNksA92ETXeCg-130" style="edgeStyle=orthogonalEdgeStyle;rounded=0;orthogonalLoop=1;jettySize=auto;html=1;exitX=0.5;exitY=0;exitDx=0;exitDy=0;entryX=0.669;entryY=1.015;entryDx=0;entryDy=0;entryPerimeter=0;endArrow=none;startFill=0;fontFamily=Times New Roman;" parent="1" source="MyaQz2SFNksA92ETXeCg-63" edge="1">
          <mxGeometry relative="1" as="geometry">
            <mxPoint x="-94.86000000000013" y="720.5999999999999" as="targetPoint" />
          </mxGeometry>
        </mxCell>
        <mxCell id="MyaQz2SFNksA92ETXeCg-131" style="edgeStyle=orthogonalEdgeStyle;rounded=0;orthogonalLoop=1;jettySize=auto;html=1;exitX=0.5;exitY=1;exitDx=0;exitDy=0;entryX=0.947;entryY=0.288;entryDx=0;entryDy=0;entryPerimeter=0;endArrow=none;startFill=0;fontFamily=Times New Roman;" parent="1" source="MyaQz2SFNksA92ETXeCg-22" target="MyaQz2SFNksA92ETXeCg-16" edge="1">
          <mxGeometry relative="1" as="geometry" />
        </mxCell>
        <mxCell id="-sRvrJZlTzUXNJ3EfaBo-8" value="" style="ellipse;whiteSpace=wrap;html=1;aspect=fixed;fontFamily=Times New Roman;fillColor=#000000;" parent="1" vertex="1">
          <mxGeometry x="-75" y="369.76" width="10" height="10" as="geometry" />
        </mxCell>
        <mxCell id="MyaQz2SFNksA92ETXeCg-112" value="&lt;font&gt;(1,n)&lt;/font&gt;" style="text;html=1;align=center;verticalAlign=middle;resizable=0;points=[];autosize=1;strokeColor=none;fillColor=none;fontFamily=Times New Roman;fontSize=12;fontColor=default;labelBackgroundColor=default;" parent="1" vertex="1">
          <mxGeometry x="-150" y="404.76" width="50" height="30" as="geometry" />
        </mxCell>
        <mxCell id="l5-qMtQxf-NeuBGAWEjH-3" value="" style="endArrow=none;html=1;rounded=0;edgeStyle=orthogonalEdgeStyle;curved=1;" edge="1" parent="1">
          <mxGeometry width="50" height="50" relative="1" as="geometry">
            <mxPoint x="-180" y="450" as="sourcePoint" />
            <mxPoint x="-70" y="380" as="targetPoint" />
          </mxGeometry>
        </mxCell>
        <mxCell id="l5-qMtQxf-NeuBGAWEjH-5" value="" style="endArrow=none;html=1;rounded=0;edgeStyle=orthogonalEdgeStyle;curved=1;" edge="1" parent="1">
          <mxGeometry width="50" height="50" relative="1" as="geometry">
            <mxPoint x="-180" y="450" as="sourcePoint" />
            <mxPoint x="-240" y="380" as="targetPoint" />
          </mxGeometry>
        </mxCell>
        <mxCell id="l5-qMtQxf-NeuBGAWEjH-7" style="edgeStyle=orthogonalEdgeStyle;shape=connector;rounded=0;orthogonalLoop=1;jettySize=auto;html=1;exitX=0.5;exitY=1;exitDx=0;exitDy=0;entryX=0.25;entryY=0;entryDx=0;entryDy=0;strokeColor=default;align=center;verticalAlign=middle;fontFamily=Times New Roman;fontSize=11;fontColor=default;labelBackgroundColor=default;startFill=0;endArrow=none;" edge="1" parent="1">
          <mxGeometry relative="1" as="geometry">
            <mxPoint x="-690" y="340" as="sourcePoint" />
            <mxPoint x="-690" y="370" as="targetPoint" />
          </mxGeometry>
        </mxCell>
        <mxCell id="l5-qMtQxf-NeuBGAWEjH-8" value="&lt;font&gt;Nome utente&lt;/font&gt;" style="text;html=1;align=center;verticalAlign=middle;resizable=0;points=[];autosize=1;strokeColor=none;fillColor=none;fontSize=12;fontFamily=Times New Roman;" vertex="1" parent="1">
          <mxGeometry x="-745" y="315" width="90" height="30" as="geometry" />
        </mxCell>
        <mxCell id="l5-qMtQxf-NeuBGAWEjH-9" style="edgeStyle=orthogonalEdgeStyle;shape=connector;rounded=0;orthogonalLoop=1;jettySize=auto;html=1;exitX=0.5;exitY=1;exitDx=0;exitDy=0;entryX=0.75;entryY=0;entryDx=0;entryDy=0;strokeColor=default;align=center;verticalAlign=middle;fontFamily=Times New Roman;fontSize=11;fontColor=default;labelBackgroundColor=default;startFill=0;endArrow=none;" edge="1" parent="1">
          <mxGeometry relative="1" as="geometry">
            <mxPoint x="-640" y="340" as="sourcePoint" />
            <mxPoint x="-640" y="370" as="targetPoint" />
          </mxGeometry>
        </mxCell>
        <mxCell id="l5-qMtQxf-NeuBGAWEjH-10" value="&lt;font&gt;Password&lt;/font&gt;" style="text;html=1;align=center;verticalAlign=middle;resizable=0;points=[];autosize=1;strokeColor=none;fillColor=none;fontSize=12;fontFamily=Times New Roman;" vertex="1" parent="1">
          <mxGeometry x="-670" y="315" width="70" height="30" as="geometry" />
        </mxCell>
        <mxCell id="l5-qMtQxf-NeuBGAWEjH-11" value="" style="ellipse;whiteSpace=wrap;html=1;aspect=fixed;fillColor=#000000;fontFamily=Times New Roman;" vertex="1" parent="1">
          <mxGeometry x="-695" y="335" width="10" height="10" as="geometry" />
        </mxCell>
        <mxCell id="l5-qMtQxf-NeuBGAWEjH-12" value="" style="ellipse;whiteSpace=wrap;html=1;aspect=fixed;fontFamily=Times New Roman;" vertex="1" parent="1">
          <mxGeometry x="-645" y="335" width="10" height="10" as="geometry" />
        </mxCell>
        <mxCell id="l5-qMtQxf-NeuBGAWEjH-13" style="edgeStyle=orthogonalEdgeStyle;shape=connector;rounded=0;orthogonalLoop=1;jettySize=auto;html=1;exitX=0.5;exitY=1;exitDx=0;exitDy=0;entryX=0.25;entryY=0;entryDx=0;entryDy=0;strokeColor=default;align=center;verticalAlign=middle;fontFamily=Times New Roman;fontSize=11;fontColor=default;labelBackgroundColor=default;startFill=0;endArrow=none;" edge="1" parent="1">
          <mxGeometry relative="1" as="geometry">
            <mxPoint x="-550.22" y="340.4" as="sourcePoint" />
            <mxPoint x="-550.22" y="370.4" as="targetPoint" />
          </mxGeometry>
        </mxCell>
        <mxCell id="l5-qMtQxf-NeuBGAWEjH-14" value="&lt;font&gt;Nome utente&lt;/font&gt;" style="text;html=1;align=center;verticalAlign=middle;resizable=0;points=[];autosize=1;strokeColor=none;fillColor=none;fontSize=12;fontFamily=Times New Roman;" vertex="1" parent="1">
          <mxGeometry x="-610" y="315" width="90" height="30" as="geometry" />
        </mxCell>
        <mxCell id="l5-qMtQxf-NeuBGAWEjH-15" style="edgeStyle=orthogonalEdgeStyle;shape=connector;rounded=0;orthogonalLoop=1;jettySize=auto;html=1;exitX=0.5;exitY=1;exitDx=0;exitDy=0;entryX=0.75;entryY=0;entryDx=0;entryDy=0;strokeColor=default;align=center;verticalAlign=middle;fontFamily=Times New Roman;fontSize=11;fontColor=default;labelBackgroundColor=default;startFill=0;endArrow=none;" edge="1" parent="1">
          <mxGeometry relative="1" as="geometry">
            <mxPoint x="-505" y="340" as="sourcePoint" />
            <mxPoint x="-505" y="370" as="targetPoint" />
          </mxGeometry>
        </mxCell>
        <mxCell id="l5-qMtQxf-NeuBGAWEjH-16" value="&lt;font&gt;Password&lt;/font&gt;" style="text;html=1;align=center;verticalAlign=middle;resizable=0;points=[];autosize=1;strokeColor=none;fillColor=none;fontSize=12;fontFamily=Times New Roman;" vertex="1" parent="1">
          <mxGeometry x="-540" y="310" width="70" height="30" as="geometry" />
        </mxCell>
        <mxCell id="l5-qMtQxf-NeuBGAWEjH-17" value="" style="ellipse;whiteSpace=wrap;html=1;aspect=fixed;fillColor=#000000;fontFamily=Times New Roman;" vertex="1" parent="1">
          <mxGeometry x="-555" y="335" width="10" height="10" as="geometry" />
        </mxCell>
        <mxCell id="l5-qMtQxf-NeuBGAWEjH-18" value="" style="ellipse;whiteSpace=wrap;html=1;aspect=fixed;fontFamily=Times New Roman;" vertex="1" parent="1">
          <mxGeometry x="-510" y="330" width="10" height="10" as="geometry" />
        </mxCell>
        <mxCell id="l5-qMtQxf-NeuBGAWEjH-19" style="edgeStyle=orthogonalEdgeStyle;rounded=0;orthogonalLoop=1;jettySize=auto;html=1;exitX=0.5;exitY=0;exitDx=0;exitDy=0;entryX=0.124;entryY=1.042;entryDx=0;entryDy=0;entryPerimeter=0;endArrow=none;startFill=0;" edge="1" parent="1" source="MyaQz2SFNksA92ETXeCg-65" target="MyaQz2SFNksA92ETXeCg-59">
          <mxGeometry relative="1" as="geometry" />
        </mxCell>
        <mxCell id="l5-qMtQxf-NeuBGAWEjH-21" value="(0,n)" style="text;html=1;align=center;verticalAlign=middle;resizable=0;points=[];autosize=1;strokeColor=none;fillColor=none;fontFamily=Times New Roman;fontSize=11;fontColor=default;labelBackgroundColor=default;" vertex="1" parent="1">
          <mxGeometry x="-145" y="715" width="40" height="30" as="geometry" />
        </mxCell>
        <mxCell id="l5-qMtQxf-NeuBGAWEjH-22" value="(0,1)" style="text;html=1;align=center;verticalAlign=middle;resizable=0;points=[];autosize=1;strokeColor=none;fillColor=none;fontFamily=Times New Roman;fontSize=11;fontColor=default;labelBackgroundColor=default;" vertex="1" parent="1">
          <mxGeometry x="-190" y="715" width="40" height="30" as="geometry" />
        </mxCell>
      </root>
    </mxGraphModel>
  </diagram>
</mxfile>
